<?xml version="1.0" encoding="utf-8"?>
<!-- Generator: Adobe Illustrator 24.1.2, SVG Export Plug-In . SVG Version: 6.00 Build 0)  -->
<svg version="1.1" id="Layer_1" xmlns="http://www.w3.org/2000/svg" xmlns:xlink="http://www.w3.org/1999/xlink" x="0px" y="0px"
	 viewBox="0 0 141.9 150" style="enable-background:new 0 0 141.9 150;" xml:space="preserve">
<style type="text/css">
	.st0{clip-path:url(#SVGID_2_);}
	.st1{fill:#231F20;}
	.st2{fill:#5AA12C;}
</style>
<g id="Group_4">
	<g>
		<defs>
			<rect id="SVGID_1_" width="141.8" height="150"/>
		</defs>
		<clipPath id="SVGID_2_">
			<use xlink:href="#SVGID_1_"  style="overflow:visible;"/>
		</clipPath>
		<g class="st0">
			<g id="Group_3">
				<path id="Path_12" class="st1" d="M139,109.5H2.7c-1.5,0-2.7-1.2-2.7-2.7l0,0V2.7C0,1.2,1.2,0,2.7,0c0,0,0,0,0,0H139
					c1.5,0,2.7,1.2,2.7,2.7l0,0v104C141.8,108.3,140.5,109.5,139,109.5L139,109.5 M5.5,104h130.8V5.5H5.5V104z"/>
				<path id="Path_13" class="st1" d="M139,150H2.7c-1.5,0-2.7-1.2-2.7-2.7v-40.5c0-1.5,1.2-2.7,2.7-2.7c0,0,0,0,0,0H139
					c1.5,0,2.7,1.2,2.7,2.7c0,0,0,0,0,0v40.5C141.8,148.8,140.5,150,139,150 M5.5,144.5h130.8v-35.1H5.5V144.5z"/>
				<path id="Path_14" class="st1" d="M104.8,124.1H59.9c-1.5,0-2.7-1.2-2.7-2.7s1.2-2.7,2.7-2.7h44.9c1.5,0,2.7,1.2,2.7,2.7
					S106.3,124.1,104.8,124.1"/>
				<path id="Path_15" class="st1" d="M121.3,135.6H60c-1.5,0-2.7-1.2-2.7-2.7c0-1.5,1.2-2.7,2.7-2.7h61.3c1.5,0,2.7,1.2,2.7,2.7
					C124.1,134.4,122.8,135.6,121.3,135.6"/>
				<path id="Path_16" class="st2" d="M90.4,39.1c0,11.9-9.6,21.5-21.5,21.5S47.4,50.9,47.4,39c0-11.9,9.6-21.5,21.5-21.5
					C80.8,17.6,90.4,27.2,90.4,39.1C90.4,39.1,90.4,39.1,90.4,39.1L90.4,39.1"/>
				<path id="Path_17" class="st1" d="M68.9,63.3c-13.4,0-24.2-10.9-24.2-24.2s10.9-24.2,24.2-24.2s24.2,10.9,24.2,24.2l0,0
					C93.2,52.5,82.3,63.3,68.9,63.3 M68.9,20.4c-10.4,0-18.7,8.4-18.7,18.7s8.4,18.7,18.7,18.7s18.7-8.4,18.7-18.7l0,0
					C87.6,28.8,79.3,20.4,68.9,20.4"/>
				<path id="Path_18" class="st2" d="M90.9,89.3h-44v-6.5C47.2,70.7,57.3,61,69.4,61.3c11.7,0.3,21.2,9.7,21.5,21.5V89.3z"/>
				<path id="Path_19" class="st1" d="M90.9,92h-44c-1.5,0-2.7-1.2-2.7-2.7l0,0v-6.5c0-13.7,11.1-24.7,24.7-24.7
					s24.7,11.1,24.7,24.7v6.5C93.6,90.8,92.4,92,90.9,92C90.9,92,90.9,92,90.9,92L90.9,92 M49.7,86.5h38.5v-3.7
					c0-10.6-8.6-19.2-19.2-19.2c-10.6,0-19.2,8.6-19.2,19.2L49.7,86.5z"/>
				<path id="Path_20" class="st1" d="M32.3,139.9c-0.4,0-0.9-0.1-1.3-0.3c-0.1,0-12.7-6.8-12.7-14.6c0-5.4,3.6-9.2,8.6-9.2
					c1.9,0.1,3.8,0.8,5.4,1.9c1.6-1.1,3.4-1.8,5.4-1.9c5,0,8.6,3.8,8.6,9.2c0,7.7-12.5,14.5-12.7,14.6
					C33.1,139.8,32.7,139.9,32.3,139.9 M26.9,121.3c-2.3,0-3.1,2-3.1,3.8c0,2.7,5,6.9,8.4,8.9c3.5-2.1,8.4-6.4,8.4-8.9
					c0-1.7-0.8-3.8-3.1-3.8c-1.3,0.3-2.5,0.9-3.4,1.8c-1.1,1-2.8,1-3.8,0h-0.1C29.4,122.1,28.2,121.5,26.9,121.3"/>
			</g>
		</g>
	</g>
</g>
</svg>
