<svg id="Layer_1" data-name="Layer 1" xmlns="http://www.w3.org/2000/svg" xmlns:xlink="http://www.w3.org/1999/xlink" viewBox="0 0 150 150"><defs><style>.cls-1{fill:none;}.cls-2{fill:#5aa12c;}.cls-3{clip-path:url(#clip-path);}.cls-4{fill:#231f20;}.cls-5{fill:#fff;}</style><clipPath id="clip-path"><rect class="cls-1" x="3.44" y="16.22" width="143.11" height="117.55"/></clipPath></defs><g id="Group_7" data-name="Group 7"><rect id="Rectangle_17" data-name="Rectangle 17" class="cls-2" x="5.49" y="18.27" width="126.29" height="96.43"/><g id="Group_6" data-name="Group 6"><g class="cls-3"><g id="Group_5" data-name="Group 5"><path id="Path_21" data-name="Path 21" class="cls-4" d="M131.78,116.75H5.49a2,2,0,0,1-2.05-2h0V18.27a2.05,2.05,0,0,1,2.05-2.05H131.78a2.05,2.05,0,0,1,2.05,2.05h0v96.44a2,2,0,0,1-2.05,2h0M7.54,112.66H129.73V20.32H7.54Z"/><rect id="Rectangle_18" data-name="Rectangle 18" class="cls-5" x="5.49" y="18.27" width="126.29" height="21.55"/><path id="Path_22" data-name="Path 22" class="cls-4" d="M131.78,41.87H5.49a2,2,0,0,1-2.05-2h0V18.27a2.05,2.05,0,0,1,2.05-2.05H131.78a2.05,2.05,0,0,1,2.05,2.05h0V39.82a2.05,2.05,0,0,1-2.05,2h0M7.54,37.78H129.73V20.32H7.54Z"/><path id="Path_23" data-name="Path 23" class="cls-5" d="M52.67,54.48,90.3,76.21,52.67,97.93Z"/><path id="Path_24" data-name="Path 24" class="cls-4" d="M52.67,100a2.05,2.05,0,0,1-2.05-2V54.48a2.05,2.05,0,0,1,3.07-1.77L91.32,74.44a2,2,0,0,1,.75,2.79,2.07,2.07,0,0,1-.75.75L53.69,99.71a2,2,0,0,1-1,.27m2-41.95V94.39L86.2,76.21Z"/><path id="Path_25" data-name="Path 25" class="cls-4" d="M21.85,29.05A3.07,3.07,0,1,1,18.79,26h0a3.07,3.07,0,0,1,3.06,3.07"/><path id="Path_26" data-name="Path 26" class="cls-4" d="M31.78,29.05A3.07,3.07,0,1,1,28.72,26h0a3.07,3.07,0,0,1,3.06,3.07h0"/><path id="Path_27" data-name="Path 27" class="cls-4" d="M41.71,29.05A3.07,3.07,0,1,1,38.65,26a3.06,3.06,0,0,1,3.06,3.07h0"/><path id="Path_28" data-name="Path 28" class="cls-5" d="M124.06,91l4.12,12.68a1.55,1.55,0,0,0,1.46,1.06H143a1.54,1.54,0,0,1,.9,2.78l-10.78,7.84a1.54,1.54,0,0,0-.56,1.72l4.12,12.67a1.54,1.54,0,0,1-2.37,1.72L123.5,123.6a1.53,1.53,0,0,0-1.8,0l-10.79,7.83a1.54,1.54,0,0,1-2.37-1.72L112.66,117a1.53,1.53,0,0,0-.56-1.72l-10.78-7.84a1.54,1.54,0,0,1-.34-2.15,1.55,1.55,0,0,1,1.24-.63h13.33a1.54,1.54,0,0,0,1.46-1.06L121.13,91a1.53,1.53,0,0,1,2.92,0"/><path id="Path_29" data-name="Path 29" class="cls-4" d="M110,133.77a3.58,3.58,0,0,1-3.58-3.59,3.77,3.77,0,0,1,.17-1.1l4-12.33-10.48-7.61a3.59,3.59,0,0,1,2.11-6.49h13l4-12.32a3.59,3.59,0,0,1,6.82,0l4,12.32h13a3.59,3.59,0,0,1,2.11,6.49l-10.49,7.62,4,12.32a3.58,3.58,0,0,1-5.51,4l-10.49-7.62-10.48,7.62a3.54,3.54,0,0,1-2.1.69m-6.22-27,9.51,6.91a3.56,3.56,0,0,1,1.3,4L111,128.86l9.52-6.92a3.59,3.59,0,0,1,4.21,0l9.52,6.92-3.63-11.19a3.55,3.55,0,0,1,1.3-4l9.51-6.92H129.64a3.58,3.58,0,0,1-3.41-2.48L122.6,93.08,119,104.27a3.59,3.59,0,0,1-3.41,2.48Z"/></g></g></g></g></svg>