<?xml version="1.0" encoding="utf-8"?>
<!-- Generator: Adobe Illustrator 24.1.2, SVG Export Plug-In . SVG Version: 6.00 Build 0)  -->
<svg version="1.1" id="Layer_1" xmlns="http://www.w3.org/2000/svg" xmlns:xlink="http://www.w3.org/1999/xlink" x="0px" y="0px"
	 viewBox="0 0 131.6 117.6" style="enable-background:new 0 0 131.6 117.6;" xml:space="preserve">
<style type="text/css">
	.st0{fill:#FFFFFF;}
	.st1{clip-path:url(#SVGID_2_);}
	.st2{fill:#231F20;}
	.st3{fill:#5AA12C;}
</style>
<g id="Group_10">
	<path id="Path_30" class="st0" d="M49.6,92.7l-9.9-3.4L49.6,92.7z"/>
	<g id="Group_9">
		<g>
			<defs>
				<rect id="SVGID_1_" x="1.1" width="129.4" height="117.6"/>
			</defs>
			<clipPath id="SVGID_2_">
				<use xlink:href="#SVGID_1_"  style="overflow:visible;"/>
			</clipPath>
			<g class="st1">
				<g id="Group_8">
					<path id="Path_31" class="st2" d="M49.6,94.5c-0.2,0-0.4,0-0.6-0.1l-9.9-3.4c-1-0.3-1.5-1.4-1.2-2.4c0.3-1,1.4-1.5,2.4-1.2
						l9.9,3.4c1,0.3,1.5,1.4,1.2,2.4C51.1,94,50.4,94.5,49.6,94.5"/>
					<path id="Path_32" class="st2" d="M34.1,92.2c-2.4-0.8-3.6-3.4-2.8-5.7c0.8-2.4,3.4-3.6,5.7-2.8c2.4,0.8,3.6,3.4,2.8,5.7l0,0
						C39,91.7,36.5,93,34.1,92.2C34.1,92.2,34.1,92.2,34.1,92.2"/>
					<path id="Path_33" class="st0" d="M80.4,92.7l9.9-3.4L80.4,92.7z"/>
					<path id="Path_34" class="st2" d="M80.4,94.5c-1,0-1.9-0.9-1.9-1.9c0-0.8,0.5-1.5,1.3-1.8l9.9-3.4c1-0.3,2,0.2,2.4,1.2
						s-0.2,2-1.2,2.4l0,0L81,94.4C80.8,94.5,80.6,94.6,80.4,94.5"/>
					<path id="Path_35" class="st2" d="M95.9,92.2c2.4-0.8,3.6-3.4,2.8-5.7c-0.8-2.4-3.4-3.6-5.7-2.8c-2.4,0.8-3.6,3.4-2.8,5.7l0,0
						C90.9,91.7,93.5,93,95.9,92.2C95.9,92.2,95.9,92.2,95.9,92.2"/>
					<path id="Path_36" class="st0" d="M89.4,47.8c0,13.3-10.8,24.1-24.1,24.1c-13.3,0-24.1-10.8-24.1-24.1
						c0-13.3,10.8-24.1,24.1-24.1c0,0,0,0,0,0C78.6,23.7,89.4,34.5,89.4,47.8C89.4,47.8,89.4,47.8,89.4,47.8"/>
					<path id="Path_37" class="st2" d="M65.3,73.8c-14.4,0-26-11.6-26-26s11.6-26,26-26s26,11.6,26,26l0,0
						C91.3,62.1,79.6,73.8,65.3,73.8 M65.3,25.5C53,25.5,43,35.5,43,47.8S53,70,65.3,70s22.3-10,22.3-22.3c0,0,0,0,0,0
						C87.5,35.5,77.6,25.5,65.3,25.5"/>
					<path id="Path_38" class="st0" d="M67.2,49.3L63,49.4c-3.2,0.8-5.4,3.6-5.4,6.9v5.5h15.2v-5.5C72.9,52.9,70.5,50,67.2,49.3"/>
					<path id="Path_39" class="st2" d="M72.9,63.6H57.7c-1,0-1.9-0.8-1.9-1.8l0,0v-5.5c0-4.1,2.8-7.7,6.8-8.7c0.1,0,0.3-0.1,0.4-0.1
						l4.1-0.1c0.1,0,0.3,0,0.4,0c4.2,0.8,7.3,4.5,7.3,8.8v5.5C74.8,62.8,73.9,63.7,72.9,63.6L72.9,63.6 M59.5,59.9H71v-3.6
						c0-2.4-1.7-4.5-4-5.1l-3.7,0.1c-2.2,0.6-3.8,2.7-3.8,5L59.5,59.9z"/>
					<path id="Path_40" class="st0" d="M73.7,42.2c0,4.6-3.7,8.4-8.4,8.4s-8.4-3.7-8.4-8.4c0-4.6,3.7-8.4,8.4-8.4c0,0,0,0,0,0
						C69.9,33.9,73.7,37.6,73.7,42.2C73.7,42.2,73.7,42.2,73.7,42.2L73.7,42.2"/>
					<path id="Path_41" class="st2" d="M65.3,52.5c-5.7,0-10.3-4.6-10.3-10.3C55,36.6,59.6,32,65.3,32c5.7,0,10.3,4.6,10.3,10.3
						c0,0,0,0,0,0C75.5,47.9,71,52.5,65.3,52.5C65.3,52.5,65.3,52.5,65.3,52.5 M65.3,35.8c-3.6,0-6.5,2.9-6.5,6.5
						c0,3.6,2.9,6.5,6.5,6.5c3.6,0,6.5-2.9,6.5-6.5c0,0,0-0.1,0-0.1l0,0C71.7,38.7,68.8,35.8,65.3,35.8"/>
					<path id="Path_43" class="st2" d="M65.3,91.5c-1,0-1.9-0.8-1.9-1.9l0,0V71.9c0.1-1,1-1.8,2-1.7c0.9,0.1,1.7,0.8,1.7,1.7l0,0
						v17.7C67.1,90.7,66.3,91.5,65.3,91.5C65.3,91.5,65.3,91.5,65.3,91.5L65.3,91.5"/>
					<path id="Path_44" class="st0" d="M27,29.4l15.3,8.9L27,29.4z"/>
					<path id="Path_45" class="st2" d="M42.3,40.2c-0.3,0-0.7-0.1-0.9-0.3L26,31.1c-0.9-0.5-1.2-1.7-0.7-2.6s1.7-1.2,2.6-0.7
						l15.3,8.8c0.9,0.5,1.2,1.7,0.7,2.6C43.6,39.8,43,40.1,42.3,40.2"/>
					<path id="Path_46" class="st0" d="M103.5,29.4l-15.3,8.9L103.5,29.4z"/>
					<path id="Path_47" class="st2" d="M88.2,40.2c-1,0-1.9-0.8-1.9-1.9c0-0.7,0.4-1.3,1-1.6l15.3-8.9c0.9-0.5,2-0.2,2.6,0.7
						c0.5,0.9,0.2,2-0.7,2.6l0,0l-15.3,8.9C88.8,40.1,88.5,40.2,88.2,40.2"/>
					<path id="Path_48" class="st3" d="M128.6,25.3c0,9.4-7.6,16.9-16.9,16.9s-16.9-7.6-16.9-16.9s7.6-16.9,16.9-16.9c0,0,0,0,0,0
						C121,8.4,128.6,16,128.6,25.3C128.6,25.3,128.6,25.3,128.6,25.3L128.6,25.3"/>
					<path id="Path_49" class="st2" d="M111.7,44.1c-10.4,0-18.8-8.4-18.8-18.8s8.4-18.8,18.8-18.8s18.8,8.4,18.8,18.8l0,0
						C130.5,35.7,122.1,44.1,111.7,44.1 M111.7,10.3c-8.3,0-15,6.8-15,15.1c0,8.3,6.8,15,15.1,15c8.3,0,15-6.8,15-15l0,0
						C126.7,17,120,10.3,111.7,10.3"/>
					<path id="Path_50" class="st0" d="M113.2,27.2l-3.3,0.1c-2.5,0.6-4.2,2.8-4.2,5.4v2.1h12v-2.1C117.7,30,115.8,27.7,113.2,27.2"
						/>
					<path id="Path_51" class="st2" d="M117.7,36.6h-12c-1,0-1.8-0.8-1.8-1.8l0,0v-2.1c0-3.4,2.3-6.4,5.7-7.2c0.1,0,0.3,0,0.4,0
						l3.3-0.1c0.1,0,0.3,0,0.4,0c3.5,0.7,6,3.7,6,7.3v2.1C119.5,35.8,118.7,36.7,117.7,36.6 M107.6,32.9h8.2v-0.2
						c0-1.7-1.2-3.2-2.8-3.6h-2.8c-1.6,0.5-2.6,1.9-2.6,3.5L107.6,32.9z"/>
					<path id="Path_52" class="st0" d="M118.3,21.6c0,3.7-2.9,6.6-6.6,6.6c-3.7,0-6.6-2.9-6.6-6.6c0-3.7,2.9-6.6,6.6-6.6
						c0,0,0,0,0,0C115.3,15,118.3,17.9,118.3,21.6L118.3,21.6"/>
					<path id="Path_53" class="st2" d="M111.7,30.1c-4.7,0-8.5-3.8-8.5-8.5s3.8-8.5,8.5-8.5c4.7,0,8.5,3.8,8.5,8.5c0,0,0,0,0,0
						C120.2,26.3,116.4,30.1,111.7,30.1 M111.7,16.9c-2.6,0-4.7,2.1-4.7,4.7s2.1,4.7,4.7,4.7c2.6,0,4.7-2.1,4.7-4.7c0,0,0,0,0,0l0,0
						C116.4,19,114.3,16.9,111.7,16.9"/>
					<path id="Path_54" class="st3" d="M36.8,25.3c0,9.4-7.6,16.9-16.9,16.9S2.9,34.7,2.9,25.3c0-9.4,7.6-16.9,16.9-16.9
						c0,0,0,0,0,0l0,0C29.2,8.4,36.8,16,36.8,25.3C36.8,25.3,36.8,25.3,36.8,25.3"/>
					<path id="Path_55" class="st2" d="M19.9,44.1c-10.4,0-18.8-8.4-18.8-18.8S9.5,6.5,19.9,6.5s18.8,8.4,18.8,18.8l0,0l0,0
						C38.7,35.7,30.2,44.1,19.9,44.1 M19.9,10.3c-8.3,0-15.1,6.7-15.1,15s6.7,15.1,15.1,15.1s15-6.7,15-15.1l0,0l0,0
						C34.9,17.1,28.2,10.4,19.9,10.3"/>
					<path id="Path_56" class="st0" d="M21.4,27.2l-3.3,0.1c-2.5,0.6-4.2,2.8-4.2,5.4v2.1h12v-2.1C25.9,30,24,27.7,21.4,27.2"/>
					<path id="Path_57" class="st2" d="M25.9,36.6h-12c-1,0-1.8-0.8-1.9-1.8l0,0v-2.1c0-3.4,2.3-6.4,5.7-7.2c0.1,0,0.3-0.1,0.4-0.1
						l3.3-0.1c0.1,0,0.3,0,0.4,0c3.5,0.7,6,3.7,6,7.3v2.1C27.7,35.8,26.9,36.7,25.9,36.6C25.9,36.7,25.9,36.7,25.9,36.6L25.9,36.6
						 M15.8,32.9H24v-0.2c0-1.7-1.2-3.2-2.8-3.6h-2.8c-1.6,0.5-2.6,1.9-2.6,3.6V32.9z"/>
					<path id="Path_58" class="st0" d="M26.5,21.6c0,3.6-3,6.6-6.6,6.6s-6.6-3-6.6-6.6c0-3.6,3-6.6,6.6-6.6S26.5,17.9,26.5,21.6
						L26.5,21.6L26.5,21.6"/>
					<path id="Path_59" class="st2" d="M19.9,30.1c-4.7,0-8.5-3.8-8.5-8.5s3.8-8.5,8.5-8.5s8.5,3.8,8.5,8.5c0,0,0,0,0,0l0,0
						C28.3,26.3,24.5,30.1,19.9,30.1L19.9,30.1 M19.9,16.8c-2.6,0-4.7,2.1-4.7,4.7c0,2.6,2.1,4.7,4.7,4.7c2.6,0,4.7-2.1,4.7-4.7
						c0,0,0,0,0,0l0,0C24.6,19,22.5,16.8,19.9,16.8"/>
					<path id="Path_60" class="st3" d="M82.2,98.8c0,9.4-7.6,16.9-16.9,16.9s-16.9-7.6-16.9-16.9c0-9.3,7.6-16.9,16.9-16.9l0,0
						C74.6,81.8,82.2,89.4,82.2,98.8C82.2,98.8,82.2,98.8,82.2,98.8"/>
					<path id="Path_61" class="st2" d="M65.3,117.6c-10.4,0-18.8-8.4-18.8-18.8S54.9,80,65.3,80s18.8,8.4,18.8,18.8c0,0,0,0,0,0l0,0
						C84.1,109.2,75.7,117.6,65.3,117.6 M65.3,83.7c-8.3,0-15.1,6.7-15.1,15s6.7,15.1,15,15.1c8.3,0,15.1-6.7,15.1-15
						c0,0,0-0.1,0-0.1l0,0C80.2,90.5,73.5,83.8,65.3,83.7"/>
					<path id="Path_62" class="st0" d="M66.8,100.6l-3.3,0.1c-2.5,0.6-4.2,2.9-4.2,5.4v2.1h12v-2.1
						C71.3,103.4,69.4,101.1,66.8,100.6"/>
					<path id="Path_63" class="st2" d="M71.3,110.1h-12c-1,0-1.9-0.8-1.9-1.9v-2.1c0-3.4,2.3-6.4,5.7-7.2c0.1,0,0.3-0.1,0.4-0.1
						l3.3,0c0.1,0,0.3,0,0.4,0c3.5,0.7,6,3.7,6,7.3v2.1C73.2,109.2,72.3,110.1,71.3,110.1C71.3,110.1,71.3,110.1,71.3,110.1
						L71.3,110.1 M61.2,106.3h8.2v-0.2c0-1.7-1.2-3.2-2.8-3.6l-2.8,0.1c-1.6,0.5-2.6,1.9-2.6,3.5L61.2,106.3z"/>
					<path id="Path_64" class="st0" d="M71.9,95c0,3.7-2.9,6.6-6.6,6.6s-6.6-2.9-6.6-6.6s2.9-6.6,6.6-6.6c0,0,0,0,0,0l0,0
						C68.9,88.4,71.9,91.4,71.9,95C71.9,95,71.9,95,71.9,95L71.9,95"/>
					<path id="Path_65" class="st2" d="M65.3,103.5c-4.7,0-8.5-3.8-8.5-8.5c0-4.7,3.8-8.5,8.5-8.5c4.7,0,8.5,3.8,8.5,8.5l0,0
						C73.8,99.7,70,103.5,65.3,103.5 M65.3,90.3c-2.6,0-4.7,2.1-4.7,4.7c0,2.6,2.1,4.7,4.7,4.7c2.6,0,4.7-2.1,4.7-4.7c0,0,0,0,0,0
						l0,0C70,92.4,67.9,90.3,65.3,90.3"/>
					<path id="Path_67" class="st2" d="M19.9,54.6c-1,0-1.8-0.8-1.9-1.8l0,0V42.2c0-1,0.8-1.9,1.9-1.9c1,0,1.9,0.8,1.9,1.9v10.5
						C21.7,53.8,20.9,54.7,19.9,54.6C19.9,54.7,19.9,54.7,19.9,54.6L19.9,54.6"/>
					<path id="Path_68" class="st2" d="M24.4,57.1c0,2.5-2,4.5-4.5,4.5c-2.5,0-4.5-2-4.5-4.5c0-2.5,2-4.5,4.5-4.5c0,0,0,0,0,0l0,0
						C22.4,52.6,24.4,54.6,24.4,57.1C24.4,57.1,24.4,57.1,24.4,57.1"/>
					<path id="Path_69" class="st0" d="M31.9,12.4l8.9-5.6L31.9,12.4z"/>
					<path id="Path_70" class="st2" d="M31.9,14.3c-1,0-1.9-0.8-1.9-1.9c0-0.6,0.3-1.2,0.9-1.6l8.9-5.6c0.9-0.6,2-0.3,2.6,0.6
						c0.6,0.9,0.3,2-0.6,2.6l0,0L32.9,14C32.6,14.2,32.3,14.3,31.9,14.3"/>
					<path id="Path_71" class="st2" d="M42.1,0.7C44.2-0.6,47,0,48.3,2.1C49.6,4.2,49,7,46.9,8.4C44.8,9.7,42,9,40.6,6.9
						c0,0,0,0,0,0C39.3,4.8,39.9,2,42.1,0.7C42,0.7,42.1,0.7,42.1,0.7L42.1,0.7"/>
					<path id="Path_73" class="st2" d="M111.7,54.6c-1,0-1.9-0.8-1.9-1.8c0,0,0,0,0,0l0,0V42.2c0-1,0.8-1.9,1.9-1.9
						c1,0,1.9,0.8,1.9,1.9v10.5C113.5,53.8,112.7,54.6,111.7,54.6C111.7,54.7,111.7,54.7,111.7,54.6L111.7,54.6"/>
					<path id="Path_74" class="st2" d="M107.2,57.1c0,2.5,2,4.5,4.5,4.5s4.5-2,4.5-4.5c0-2.5-2-4.5-4.5-4.5h0
						C109.2,52.6,107.2,54.6,107.2,57.1"/>
					<path id="Path_75" class="st0" d="M99.6,12.4l-8.9-5.6L99.6,12.4z"/>
					<path id="Path_76" class="st2" d="M99.6,14.3c-0.4,0-0.7-0.1-1-0.3l-8.9-5.6c-0.9-0.6-1.1-1.7-0.6-2.6c0.6-0.9,1.7-1.1,2.6-0.6
						l8.9,5.6c0.9,0.6,1.1,1.7,0.6,2.6C100.9,14,100.3,14.3,99.6,14.3"/>
					<path id="Path_77" class="st2" d="M89.5,0.7c-2.1-1.3-4.9-0.7-6.2,1.4c-1.3,2.1-0.7,4.9,1.4,6.2c2.1,1.3,4.9,0.7,6.2-1.4
						c0,0,0,0,0,0C92.2,4.8,91.6,2,89.5,0.7"/>
				</g>
			</g>
		</g>
	</g>
</g>
</svg>
